<svg width="1266" height="1266" viewBox="0 0 1266 1266" fill="none" xmlns="http://www.w3.org/2000/svg">
<path d="M173.174 1213.64C132.256 1215.04 97.4265 1182.8 101.591 1141.97C106.529 1093.55 117.917 1045.89 135.535 1000.3C162.103 931.543 202.288 868.894 253.666 816.129C305.045 763.364 366.554 721.577 434.482 693.287C502.41 664.998 575.351 650.792 648.904 651.527C722.459 652.262 795.103 667.922 862.454 697.564C929.807 727.205 990.472 770.213 1040.79 823.994C1091.11 877.774 1130.04 941.214 1155.23 1010.49C1171.94 1056.42 1182.38 1104.3 1186.36 1152.81C1189.71 1193.71 1154.24 1225.25 1113.36 1223.03C1072.48 1220.81 1041.85 1185.54 1036.43 1144.86C1032.64 1116.45 1025.78 1088.46 1015.94 1061.39C997.601 1010.97 969.267 964.801 932.645 925.659C896.022 886.517 851.869 855.216 802.85 833.643C753.831 812.07 700.96 800.672 647.427 800.137C593.894 799.602 540.807 809.941 491.369 830.53C441.93 851.12 397.163 881.533 359.77 919.935C322.376 958.338 293.129 1003.93 273.793 1053.97C263.411 1080.84 256.003 1108.69 251.65 1137.02C245.419 1177.58 214.093 1212.23 173.174 1213.64Z" fill="#990000"/>
<path d="M643.475 522.5C766.481 522.5 866.197 422.548 866.197 299.25C866.197 175.952 766.481 76 643.475 76C520.469 76 420.753 175.952 420.753 299.25C420.753 422.548 520.469 522.5 643.475 522.5Z" fill="#339966" stroke="#0063BF" stroke-width="80"/>
</svg>
