<svg width="1253" height="1250" viewBox="0 0 1253 1250" fill="none" xmlns="http://www.w3.org/2000/svg">
<path d="M116.049 1224.46C96.3161 1225.13 79.6495 1209.67 80.2666 1189.93C82.1928 1128.34 94.5365 1067.42 116.856 1009.8C143.487 941.043 183.767 878.394 235.267 825.629C286.768 772.864 348.422 731.077 416.511 702.787C484.6 674.498 557.714 660.292 631.442 661.027C705.171 661.762 777.987 677.422 845.498 707.064C913.01 736.705 973.819 779.713 1024.26 833.494C1074.7 887.274 1113.72 950.714 1138.97 1019.99C1160.14 1078.05 1171.27 1139.19 1171.97 1200.82C1172.19 1220.56 1155.22 1235.69 1135.5 1234.62C1115.79 1233.55 1100.81 1216.68 1100.39 1196.94C1099.29 1144.98 1089.66 1093.46 1071.8 1044.48C1049.85 984.275 1015.94 929.144 972.104 882.405C928.271 835.667 875.425 798.291 816.754 772.532C758.083 746.772 694.803 733.163 630.73 732.524C566.656 731.885 503.117 744.231 443.944 768.816C384.772 793.401 331.192 829.716 286.435 875.571C241.679 921.426 206.673 975.871 183.53 1035.62C164.699 1084.24 154.039 1135.56 151.902 1187.49C151.09 1207.22 135.782 1223.78 116.049 1224.46Z" fill="#990000"/>
<path d="M626 538.5C757.582 538.5 864.25 431.832 864.25 300.25C864.25 168.668 757.582 62 626 62C494.418 62 387.75 168.668 387.75 300.25C387.75 431.832 494.418 538.5 626 538.5Z" fill="#339966" stroke="#0063BF" stroke-width="50"/>
</svg>
